<svg width="28" height="22" viewBox="0 0 28 22" fill="none" xmlns="http://www.w3.org/2000/svg">
<path d="M9.79637 22.0001C10.664 22.0001 11.3673 21.3012 11.3673 20.439C11.3673 19.5769 10.664 18.8779 9.79637 18.8779C8.92878 18.8779 8.22546 19.5769 8.22546 20.439C8.22546 21.3012 8.92878 22.0001 9.79637 22.0001Z" fill="white"/>
<path d="M23.0909 22.0001C23.9585 22.0001 24.6618 21.3012 24.6618 20.439C24.6618 19.5769 23.9585 18.8779 23.0909 18.8779C22.2233 18.8779 21.52 19.5769 21.52 20.439C21.52 21.3012 22.2233 22.0001 23.0909 22.0001Z" fill="white"/>
<path d="M5.45809 0C5.79804 0.00123377 6.09475 0.244382 6.18129 0.592641C6.37232 1.44547 6.53606 2.15375 6.6998 2.89093L6.75268 3.137C6.82943 3.53617 6.86355 3.88349 7.06823 4.22076C7.31384 5.30486 7.54581 6.41787 7.79142 7.86334C7.94152 8.65835 8.06433 9.46781 8.17349 10.2484V10.364L8.33723 11.5204V11.6649C8.47368 12.6045 8.63743 13.6597 8.81481 14.6715C11.5166 14.7149 14.2456 14.6426 16.8246 14.4691C19.4035 14.2957 22.0234 14.2957 24.5614 14.2957C24.8889 12.2142 25.2982 10.1183 25.694 8.10907L26.334 4.82098L13.4855 2.9343C12.98 2.62008 12.7273 2.33711 12.7273 2.0854C12.7273 1.83369 13.6475 1.76741 15.488 1.88657L28 2.9343L27.9313 3.61957L27.9318 3.64258C27.8908 4.07622 27.8469 4.51307 27.7994 4.95153L27.7903 5.03538C27.6975 5.88413 27.5912 6.73943 27.4678 7.5887C27.0585 10.5808 26.6628 13.067 26.2125 15.4087C26.1273 15.8718 25.7436 16.2054 25.2982 16.2037H24.5478C21.9961 16.1748 19.3762 16.2326 16.7836 16.0302C14.191 15.8279 11.462 15.8279 8.73294 15.8279H8.26901C7.99994 15.8277 7.76721 15.6293 7.70955 15.3509L7.61404 14.9028C7.39571 13.9054 7.1501 12.908 6.91813 11.9396V11.7806L6.61793 10.523C6.4269 9.7569 6.22222 8.96189 6.07212 8.16689C5.77193 6.80815 5.53996 5.62286 5.36257 4.52431C5.2807 4.10512 5.23977 3.83049 5.1306 3.23785C5.02144 2.6452 4.91228 2.08147 4.81676 1.50329C2.93372 1.41656 1.62378 1.32983 0.354776 1.21419H0V0.361367L0.354776 0.318002C1.95127 0.159001 3.54776 0.0722733 5.45809 0Z" fill="white"/>
</svg>
